<svg width="26" height="27" viewBox="0 0 26 27" fill="none" xmlns="http://www.w3.org/2000/svg">
<path d="M1 18L25 18" stroke="#4C5150" stroke-linecap="round"/>
<path d="M2 21C3.375 21 3.375 23 4.75 23C6.125 23 6.125 21 7.5 21C8.875 21 8.875 23 10.25 23C11.625 23 11.625 21 13 21C14.375 21 14.375 23 15.75 23C17.125 23 17.125 21 18.5 21C19.875 21 19.875 23 21.25 23C22.625 23 22.625 21 24 21" stroke="#4C5150"/>
<circle cx="7" cy="26" r="0.5" fill="#C4C4C4" stroke="#4C5150"/>
<circle cx="13" cy="26" r="0.5" fill="#C4C4C4" stroke="#4C5150"/>
<circle cx="19" cy="26" r="0.5" fill="#C4C4C4" stroke="#4C5150"/>
<path d="M8.21375 9.33333C8.87103 8 10.6784 4.25 11.5 3C12.3216 4.25 14.129 8 14.7863 9.33333C15.6079 11 13.9646 13.5 11.4998 13.5C9.03503 13.5 7.39215 11 8.21375 9.33333Z" stroke="#4C5150" stroke-linecap="round" stroke-linejoin="round"/>
<path d="M13.5 10.5C13.5 11 13.2246 11.2754 13 11.5C12.7754 11.7246 12.3333 12 12 12" stroke="#4C5150" stroke-width="0.5"/>
<path d="M16.1221 4.61905C16.4977 3.85714 17.5305 1.71429 18 1C18.4695 1.71429 19.5023 3.85714 19.8779 4.61905C20.3474 5.57143 19.4084 7 17.9999 7C16.5914 7 15.6527 5.57143 16.1221 4.61905Z" stroke="#4C5150" stroke-width="0.7" stroke-linecap="round" stroke-linejoin="round"/>
</svg>
