<svg width="17" height="17" viewBox="0 0 17 17" fill="none" xmlns="http://www.w3.org/2000/svg">
<path d="M9.264 3.992C9.264 3.416 8.784 2.936 8.208 2.936C7.632 2.936 7.152 3.416 7.152 3.992C7.152 4.568 7.632 5.048 8.208 5.048C8.784 5.048 9.264 4.568 9.264 3.992ZM10.16 13V12.424L9.184 12.232V6.28L6.48 6.648V7.256L7.456 7.432V12.232L6.48 12.424V13H10.16Z" fill="#61C8B3"/>
<path d="M8.5 16.5C4.08172 16.5 0.5 12.9183 0.5 8.5C0.5 4.08172 4.08172 0.5 8.5 0.5C12.9183 0.5 16.5 4.08172 16.5 8.5C16.5 12.9183 12.9183 16.5 8.5 16.5Z" stroke="#61C8B3"/>
</svg>
