<svg width="17" height="17" viewBox="0 0 17 17" fill="none" xmlns="http://www.w3.org/2000/svg">
<path d="M0 8.5C0 3.80558 3.80558 0 8.5 0V0C13.1944 0 17 3.80558 17 8.5V8.5C17 13.1944 13.1944 17 8.5 17V17C3.80558 17 0 13.1944 0 8.5V8.5Z" fill="white"/>
<path d="M9.264 3.992C9.264 3.416 8.784 2.936 8.208 2.936C7.632 2.936 7.152 3.416 7.152 3.992C7.152 4.568 7.632 5.048 8.208 5.048C8.784 5.048 9.264 4.568 9.264 3.992ZM10.16 13V12.424L9.184 12.232V6.28L6.48 6.648V7.256L7.456 7.432V12.232L6.48 12.424V13H10.16Z" fill="#4C5150"/>
</svg>
