<svg width="60" height="60" viewBox="0 0 60 60" fill="none" xmlns="http://www.w3.org/2000/svg">
<circle cx="30" cy="30" r="30" fill="#61C8B3"/>
<path d="M2 30.2651C4.8553 29.1876 7.02648 28.9989 10 28.9289C12 28.9289 9.35695 21.7269 10.7947 20.7802C11.1764 20.5288 12.5878 26.0812 12.645 26.2955C13.3311 28.8624 14.1163 31.1365 15.1903 33.4511C15.6469 34.435 15.8221 35.2167 15.7319 33.4749C15.6616 32.1182 15.6597 30.7699 15.6597 29.4097C15.6597 28.1779 16.5586 29.0758 17.1941 29.2671C18.377 29.6231 19.8591 29.5587 21.0752 29.4097C22.2205 29.2694 21.5593 24.4029 21.6077 23.5497C21.7118 21.7126 22.3863 25.2901 22.5103 25.713C23.1675 27.9556 24.042 30.032 24.866 32.1674C25.5735 34.0007 25.395 31.1817 25.4437 30.3131C25.5055 29.2096 25.1988 27.4289 26.3192 27.496C28.2844 27.6136 30.1997 27.6913 32.1679 27.4722C33.6128 27.3114 32.8174 23.8459 33.0073 22.3729C33.0497 22.0444 33.198 22.9956 33.242 23.3239C33.3723 24.2966 33.4808 25.2735 33.603 26.2479C33.8507 28.2233 34.0223 30.2366 34.3522 32.1911C34.4751 32.9198 34.6761 36.4217 35.0742 36.946C35.3813 37.3504 35.0376 34.4014 35.0742 33.8315C35.1486 32.675 35.2173 31.5182 35.2818 30.3606C35.327 29.5494 35.2225 28.7849 35.9858 28.7678C36.254 28.7619 39.9073 29.1152 39.9986 28.8748C40.2387 28.2424 40.2209 27.2983 40.2333 26.6164C40.2703 24.5661 40.4094 22.9603 40.5 20.9121C40.5684 19.365 40.9765 12.6819 41 14.2314C41.5 17.5717 41.4219 21.394 42 24.9205C43.1329 35.3638 45 46.299 45 40.2864C44.9411 38.165 44.7119 29.6482 45 27.5929C46.0066 26.2479 57.765 28.4586 59 28.7678" stroke="white" stroke-linecap="round" stroke-linejoin="round"/>
</svg>
