<svg width="60" height="60" viewBox="0 0 60 60" fill="none" xmlns="http://www.w3.org/2000/svg">
<path d="M30 60C46.5685 60 60 46.5685 60 30C60 13.4315 46.5685 0 30 0C13.4315 0 0 13.4315 0 30C0 46.5685 13.4315 60 30 60Z" fill="#C1CAC8"/>
<path d="M17.4028 15.4296C17.3081 15.4806 17.2572 15.5752 17.2572 15.6699C17.3518 16.1942 17.3518 16.7694 17.4974 17.301C18.0727 19.6456 18.6479 21.9466 19.2232 24.2913C19.7984 26.5413 20.4174 28.7476 20.9926 30.9976C21.1819 31.7621 21.3275 32.5267 21.4732 33.2985C21.5678 33.7282 21.5678 34.1578 21.4732 34.5437C21.4732 34.5947 21.4222 34.6384 21.4732 34.6893C21.6625 35.1699 21.5678 35.5995 21.3275 36.0291C20.8979 36.8447 20.228 37.3689 19.4125 37.6602C18.3567 38.0461 17.3081 38.0461 16.2523 37.9005C15.3931 37.8058 14.5775 37.6165 13.813 37.2306C13.3834 36.9903 12.9538 36.75 12.7135 36.2257C12.4732 35.7451 12.4732 35.2209 12.5241 34.7403C12.6188 33.3058 12.9538 31.9587 13.245 30.5752C13.8203 27.75 14.4392 24.9248 15.0654 22.0485C15.4004 20.4684 15.6916 18.8374 16.0266 17.2573C16.0775 16.8277 16.1212 16.3981 16.1722 15.9175C15.8882 15.8665 15.6479 15.6772 15.4513 15.4369C15.3057 15.1966 15.3057 14.9563 15.4513 14.8107C15.6407 14.6214 15.9756 14.5704 16.1722 14.716C16.3615 14.8107 16.3615 15 16.4125 15.1456C16.4125 15.335 16.4125 15.4806 16.4125 15.7209C16.6528 15.6262 16.8421 15.5316 17.0387 15.4369C17.0897 15.4369 17.0897 15.3859 17.0897 15.3422L17.4028 15.4296ZM30.7135 14.9053C30.6625 18.3058 30.6188 21.6553 30.5678 25.0631C30.5169 27.6044 30.5678 30.1384 30.5678 32.6796C30.5678 33.9248 30.6188 35.1189 30.6625 36.3641C30.7135 37.6602 30.8081 39 30.9028 40.2888C30.9538 40.8131 31.0484 41.3884 31.0921 41.9199C31.1868 41.9199 31.2814 41.9199 31.3324 41.9199C33.0581 41.9199 34.7329 42.0146 36.4076 42.4442C36.8373 42.5388 37.2232 42.7282 37.6528 42.9248C37.8931 43.0194 38.1334 43.2087 38.279 43.4053C38.614 43.7913 38.614 44.2209 38.228 44.5049C37.9877 44.6942 37.7038 44.8908 37.3688 44.9345C36.7426 45.0801 36.1746 45.2185 35.5484 45.2694C34.8275 45.3204 34.063 45.3204 33.3421 45.2694C32.3809 45.2694 31.711 44.6942 31.4271 43.784C31.2377 43.2597 31.0921 42.6845 30.9028 42.1092C30.6625 42.1092 30.4222 42.1092 30.1819 42.1602C29.2717 42.2549 28.3106 42.4005 27.4513 42.7864C27.0217 42.9757 26.6358 43.1723 26.3008 43.5073C26.1552 43.6529 26.0169 43.7913 25.9149 43.9879C25.6746 44.4175 25.7256 44.8034 26.0606 45.1384C26.3445 45.4223 26.7305 45.6189 27.1601 45.7646C28.0193 46.0995 28.8858 46.2451 29.745 46.3908C32.33 46.7257 34.9659 46.6748 37.5508 46.6311C38.3664 46.6311 39.1819 46.5801 39.9902 46.5801C40.0411 46.5801 40.0848 46.5801 40.1795 46.5801C40.2305 46.5801 40.2741 46.6311 40.2741 46.6748C40.2741 46.7257 40.2232 46.7694 40.1795 46.7694C40.1795 46.7694 40.1285 46.7694 40.0848 46.7694C37.7839 46.7694 35.5339 46.8204 33.2329 46.8204C31.7984 46.8204 30.3567 46.7257 28.9222 46.4345C28.063 46.2888 27.1965 46.0485 26.4319 45.6189C26.2426 45.5243 26.097 45.3786 25.9513 45.233C25.5654 44.8471 25.5217 44.3228 25.8057 43.8422C26.0897 43.3617 26.4756 43.0777 26.9052 42.8374C27.7208 42.4078 28.58 42.1675 29.4465 42.0218C29.9271 41.9272 30.4513 41.9272 30.9756 41.8325C30.9756 41.6432 30.9246 41.4466 30.8809 41.2573C30.7863 40.2524 30.6407 39.2476 30.6407 38.1917C30.546 36.2767 30.495 34.3617 30.495 32.4466C30.4441 30.4806 30.4441 28.5218 30.495 26.5995C30.495 23.4393 30.546 20.2282 30.5897 17.068C30.444 16.3981 30.495 14.6723 30.495 14.5777L30.7135 14.9053ZM43.0266 15.8592H43.0775C43.1285 15.7646 43.1285 15.6189 43.1722 15.5243C43.2232 15.335 43.2669 15.1383 43.3615 14.949C43.5508 14.5194 43.9368 14.3738 44.4173 14.5194C44.8033 14.665 44.9926 15.0437 44.8979 15.4806C44.8033 15.9102 44.4683 16.2015 43.9368 16.2015C43.6965 16.2015 43.4562 16.1505 43.2159 16.1505C43.1212 16.3398 43.1649 16.4854 43.2159 16.6748C43.7911 18.2549 44.1771 19.9296 44.5557 21.5607C45.2256 24.3859 45.9465 27.1675 46.8567 29.9417C47.2426 31.0922 47.5775 32.2427 47.9562 33.4369C48.1018 33.9175 48.1965 34.4417 48.1455 34.966C48.0508 35.8252 47.6212 36.4951 46.9004 36.9757C45.9902 37.6019 44.9343 37.9369 43.8348 37.9806C42.5387 38.0316 41.2499 37.835 40.0484 37.2597C39.6625 37.0704 39.2839 36.8301 39.0436 36.4442C38.7086 35.9636 38.614 35.3884 38.6576 34.8131C38.7086 33.9029 38.9926 32.9927 39.2839 32.1335C39.8081 30.4078 40.3834 28.682 40.864 26.9126C41.2499 25.5218 41.5339 24.1311 41.7741 22.6966C42.1601 20.6869 42.5387 18.6262 42.8737 16.5655L43.0266 15.8592ZM17.0678 15.6699C16.8785 15.7646 16.6382 15.8155 16.4416 15.9102C16.3907 15.9102 16.3907 16.0049 16.347 16.0558C16.2013 17.1553 16.012 18.2621 15.8227 19.3617C15.4368 21.3277 15.0072 23.2864 14.5775 25.2524C14.0023 27.8884 13.478 30.568 12.9465 33.2039C12.8008 33.9248 12.7062 34.6893 12.7062 35.4102C12.7062 35.8908 12.8518 36.3204 13.2305 36.6044C13.5144 36.8447 13.8057 36.9903 14.1407 37.1286C14.9052 37.4636 15.7207 37.6092 16.5363 37.7039C17.5411 37.7985 18.5023 37.7985 19.4562 37.4199C20.2207 37.1359 20.796 36.6553 21.1819 35.8908C21.3275 35.6068 21.4222 35.3155 21.3275 34.9806C21.3275 35.0316 21.2766 35.0316 21.2766 35.0752C20.9926 35.6505 20.5557 35.9854 20.0314 36.2257C19.4052 36.5097 18.7353 36.6117 18.0654 36.6117C17.1042 36.6117 16.1504 36.466 15.1892 36.1311C14.8033 35.9854 14.3737 35.7961 14.0897 35.5049C13.7038 35.1189 13.7038 34.5947 14.0897 34.2087C14.2353 34.2087 14.33 34.1141 14.4756 34.0631C15.0508 33.7282 15.7208 33.6772 16.347 33.5825C17.2572 33.4879 18.2183 33.5316 19.1285 33.6335C19.8931 33.7282 20.7086 33.8738 21.3348 34.449C21.3348 34.3034 21.3858 34.2087 21.3858 34.0631C21.3858 33.4369 21.2911 32.818 21.1018 32.1917C20.5266 29.9854 19.9513 27.7864 19.3761 25.5364C18.8518 23.5267 18.3203 21.5097 17.796 19.5C17.4974 18.2549 17.1625 17.0097 17.0678 15.6699ZM47.6212 36.0728C47.3809 36.1675 47.1407 36.3131 46.8567 36.3568C46.2305 36.5024 45.6115 36.5971 44.9853 36.6917C43.7402 36.8374 42.495 36.8374 41.2499 36.5971C40.8203 36.5024 40.3907 36.3568 40.0557 36.1165C39.5751 35.7306 39.5314 35.1553 39.961 34.682C40.245 34.3981 40.5363 34.2015 40.8712 34.0558C42.7426 33.2403 44.6067 33.1966 46.5217 33.9102C47.0023 34.0995 47.4319 34.2961 47.7669 34.6748C47.8178 34.7694 47.9125 34.8204 47.9562 34.9151H48.0072C47.9562 34.5801 47.9562 34.2888 47.8615 33.9539C47.5266 32.8034 47.1916 31.7039 46.8567 30.5534C46.3324 28.8277 45.8008 27.1019 45.3275 25.3325C44.7523 23.1772 44.228 20.9709 43.6965 18.8155C43.5508 18.1893 43.3106 17.5704 43.1722 16.9442C43.1212 16.9951 43.1212 17.0388 43.1212 17.0898C42.7353 19.1505 42.4004 21.2112 42.0217 23.2718C41.7377 24.7573 41.3955 26.2427 41.0169 27.7282C40.5873 29.3083 40.0557 30.8447 39.5824 32.4248C39.3421 33.1893 39.1018 34.0049 39.0072 34.8204C38.9562 35.585 39.1018 36.3058 39.728 36.7864C40.063 37.0267 40.3979 37.216 40.7329 37.3617C41.4538 37.6456 42.2183 37.7913 42.9829 37.8859C44.1771 37.9806 45.2839 37.835 46.3324 37.2597C46.8057 36.8883 47.2426 36.5534 47.6212 36.0728ZM43.7911 36.5534C44.2717 36.5024 45.1309 36.4587 45.9975 36.3131C46.5217 36.2621 47.0023 36.1238 47.4829 35.8835C48.0581 35.5485 48.0581 35.1626 47.6285 34.6893C47.3882 34.449 47.1479 34.3034 46.864 34.165C45.0436 33.3495 43.1795 33.3058 41.3591 34.0194C40.9295 34.1651 40.4999 34.4053 40.2086 34.7403C39.8227 35.1262 39.8737 35.5558 40.3033 35.8908C40.5873 36.0801 40.9295 36.2257 41.2644 36.3204C41.9198 36.5024 42.6916 36.5534 43.7911 36.5534ZM31.0994 42.1092C31.245 42.8738 31.3834 43.5947 31.8203 44.2646C32.1552 44.7888 32.5848 45.0291 33.1601 45.0801C34.2596 45.1748 35.4101 45.1311 36.5096 44.9345C36.9902 44.8398 37.5144 44.7451 37.9004 44.4539C38.33 44.1699 38.3809 43.733 37.9513 43.3981C37.8567 43.3034 37.762 43.2524 37.6674 43.2087C37.2377 42.9684 36.8081 42.7791 36.3275 42.6845C34.9805 42.3495 33.5387 42.2039 32.1552 42.1529C31.864 42.1092 31.478 42.1092 31.0994 42.1092ZM17.4028 33.7282C16.7329 33.7282 16.063 33.7791 15.3931 33.9175C14.9635 34.0121 14.5775 34.1068 14.2426 34.4417C13.9076 34.7257 13.9076 35.1117 14.2426 35.4029C14.4319 35.5485 14.6285 35.6869 14.8688 35.7888C15.5387 36.1238 16.3033 36.2694 17.0241 36.3641C17.8834 36.4587 18.6989 36.4587 19.5654 36.2185C20.2863 36.0291 20.8615 35.6432 21.1455 34.9223C21.2402 34.682 21.2402 34.6384 21.0508 34.4927C20.7669 34.2524 20.4246 34.1068 20.0897 34.0121C19.2232 33.8228 18.313 33.7282 17.4028 33.7282ZM43.2669 15.9102C43.6018 16.0049 43.8931 16.0558 44.1771 15.9612C44.4174 15.9102 44.6067 15.7209 44.7013 15.4806C44.796 15.1456 44.7013 14.8107 44.3664 14.716C44.0314 14.5704 43.6965 14.716 43.5508 15.051C43.4562 15.335 43.3615 15.6189 43.2669 15.9102ZM16.2013 15.6699C16.2013 15.4296 16.2013 15.2403 16.1504 15.0437C16.1504 14.8544 15.961 14.8034 15.7644 14.8544C15.6188 14.9053 15.5241 15.0437 15.5751 15.1893C15.6261 15.4296 15.9174 15.6699 16.2013 15.6699Z" fill="white" stroke="white" stroke-width="0.7401" stroke-miterlimit="10"/>
<path d="M43.2668 16.0048C38.2352 14.665 31.3906 14.6141 26.5046 14.7597C21.2328 14.949 17.0677 15.4806 17.0677 15.4806V15.3349C17.1187 15.3349 21.2838 14.8107 26.5483 14.6141C31.4343 14.4247 38.2862 14.5194 43.3105 15.8082L43.2668 16.0048Z" fill="white" stroke="white" stroke-width="0.7401" stroke-miterlimit="10"/>
<path d="M30.7135 14.8544C30.6625 14.5704 30.6188 14.2791 30.6625 13.9442C30.6625 13.7985 30.7135 13.6602 30.8081 13.5582C30.8081 13.5073 30.8591 13.5073 30.8591 13.4636C30.8591 13.4636 30.8591 13.4126 30.9101 13.4126C30.961 13.4636 30.961 13.5582 30.961 13.6019C31.012 14.2281 30.7208 14.7961 30.5751 15.3714C30.4805 15.7063 30.4295 16.0413 30.4805 16.3762C30.4805 16.4709 30.6261 16.4272 30.5751 16.3252C30.4805 15.6553 30.7644 15.0291 30.961 14.4102C31.0557 14.0752 31.1067 13.784 31.012 13.449C31.012 13.3981 30.961 13.3034 30.9174 13.2597C30.8227 13.2087 30.7717 13.3107 30.728 13.3544C30.6334 13.5 30.5824 13.6383 30.5387 13.784C30.4877 14.1699 30.5387 14.5485 30.5897 14.8835C30.6188 15 30.7135 14.949 30.7135 14.8544Z" fill="white" stroke="white" stroke-width="0.7401" stroke-miterlimit="10"/>
</svg>
