<svg width="60" height="60" viewBox="0 0 60 60" fill="none" xmlns="http://www.w3.org/2000/svg">
<path d="M30 60C46.5685 60 60 46.5685 60 30C60 13.4315 46.5685 0 30 0C13.4315 0 0 13.4315 0 30C0 46.5685 13.4315 60 30 60Z" fill="#C1CAC8"/>
<path d="M20.3137 38.6348C20.2318 38.8581 20.1772 39.1356 20.0817 39.359C19.918 39.711 19.6792 39.9343 19.3381 39.9072C19.0789 39.8937 18.9493 39.7177 18.8538 39.4402C18.7583 39.1695 18.8128 38.9394 19.0175 38.7498C19.2767 38.5265 19.5837 38.3505 19.8703 38.1407C19.8839 37.8497 19.8975 37.5925 19.8975 37.3082C19.8566 35.2371 19.8566 33.166 19.7611 31.0949C19.6929 29.6668 19.6792 28.2386 19.5701 26.8105C19.4473 25.1252 19.0448 23.582 18.5195 22.0118C18.3967 21.6598 18.2193 21.3349 17.9806 21.0777C17.2642 20.3265 16.5206 20.2114 15.7225 20.8544C15.2654 21.2267 14.9925 21.7884 14.7742 22.3773C14.4126 23.3722 14.1671 24.4145 14.0443 25.4907C13.826 27.3181 13.7714 29.1524 13.7441 31.0001C13.7304 31.4333 13.7987 31.88 13.826 32.3199C14.0443 32.3809 14.283 32.3809 14.4877 32.4824C14.7606 32.611 14.8765 32.787 14.8765 33.1389C14.8765 33.4909 14.8083 33.8293 14.59 34.1C14.3171 34.452 14.0238 34.4384 13.7236 34.1135C13.6418 34.0188 13.5872 33.8699 13.519 33.7413C13.4507 33.6127 13.3962 33.4706 13.3416 33.342C13.1642 33.342 13.0141 33.342 12.8299 33.342C12.6389 33.342 12.4411 33.3893 12.2501 33.342C11.7657 33.2472 11.4519 33.0374 11.2472 32.4891C11.0426 31.9274 10.9061 31.3318 10.872 30.7226C10.8311 29.8563 10.8447 28.9696 10.7902 28.1033C10.7629 27.5889 10.7083 27.061 10.6264 26.5466C10.5991 26.3841 10.5582 26.1946 10.4627 26.066C10.2308 25.7141 10.0193 25.5855 9.65088 25.8223C8.64805 26.4653 8.1364 26.9459 7.80212 28.2792C7.63839 28.9358 7.52924 29.5788 7.52924 30.2082C7.51559 31.9748 7.77483 33.5653 8.12275 35.2371C8.12275 35.2709 8.1364 35.298 8.15004 35.3183C8.55254 36.5095 9.16652 37.0713 10.2035 37.3759C10.6878 37.518 11.1927 37.4909 11.6634 37.5857C12.4479 37.7481 12.9323 38.1475 13.1779 39.0612C13.4507 40.0426 13.4917 41.0511 13.5258 42.0799C13.5804 43.156 13.5394 44.2457 13.5804 45.3219C13.6622 47.4742 13.7441 49.6401 13.8396 51.7924C13.8669 52.4016 13.8942 52.9972 13.8396 53.6063C13.7304 53.6875 13.5667 53.6402 13.5394 53.4913C13.4439 53.0243 13.3757 52.5775 13.3484 52.1105C13.1438 48.7737 13.0482 45.3963 13.0005 42.0596C12.9868 41.3083 12.9596 40.5028 12.8368 39.8125C12.6185 38.5739 12.2569 38.2896 11.2404 38.0933C10.8243 38.0121 10.3058 38.0121 9.86236 37.9173C9.63042 37.8564 9.378 37.7887 9.1597 37.6601C8.52525 37.2608 8.04089 36.7938 7.78165 35.9748C7.48148 35.0273 7.27 34.1135 7.16085 33.0848C6.99712 31.4942 6.87432 30.0526 7.22907 28.462C7.58381 26.8579 8.21826 26.1337 9.40529 25.3486C10.067 24.9154 10.5514 25.1049 10.9334 25.8291C11.2336 26.3909 11.2472 27.0339 11.295 27.6769C11.3496 28.4011 11.3086 29.1388 11.3496 29.863C11.3905 30.6482 11.486 31.4198 11.7248 32.1575C11.8476 32.5298 12.0522 32.6719 12.3865 32.7193C12.6321 32.7531 12.8982 32.6854 13.1438 32.7057C13.171 32.5162 13.212 32.2726 13.212 32.0966C13.171 30.0119 13.2256 27.9544 13.4439 25.8833C13.5804 24.5634 13.8737 23.3113 14.3376 22.1133C14.5832 21.5042 14.8765 20.9085 15.3677 20.5431C16.5138 19.6767 17.7759 19.8188 18.5536 21.1725C19.4882 22.7969 19.7952 24.5431 19.9317 26.4383C20.109 28.8952 20.0681 31.3385 20.1636 33.7887C20.2182 35.0408 20.2182 36.2929 20.2728 37.5586C20.2728 37.7008 20.3137 37.8632 20.3273 38.0053C20.839 37.8767 21.2347 37.6195 21.5144 37.0916C21.76 36.6584 21.8555 36.1914 21.9169 35.6973C21.9987 35.1965 22.0124 34.7024 22.0669 34.2218C22.2034 32.7937 22.3808 31.3927 22.6741 29.9984C22.7969 29.4502 22.9606 28.9561 23.2403 28.4891C23.5132 28.0221 23.8884 27.7378 24.3864 27.7039C24.9254 27.6701 25.321 27.9273 25.5462 28.5094C25.7099 28.929 25.819 29.3893 25.86 29.8427C26.0237 32.3605 26.0783 34.8378 25.8327 37.3556C25.7235 38.5603 25.4165 39.6703 24.9254 40.7465C24.5502 41.5655 23.9498 42.0799 23.2608 42.4995C22.9743 42.6619 22.6536 42.7432 22.3671 42.9191C21.6781 43.3388 21.2619 43.8667 21.0982 44.7804C21.0027 45.3557 20.9891 45.9378 20.9754 46.5334C20.9345 48.3947 20.9481 50.2763 20.9208 52.1376C20.8936 53.2476 20.8526 54.3508 20.798 55.4608C20.798 55.603 20.7571 55.7519 20.7162 55.8805C20.6889 55.9414 20.607 55.9752 20.5525 55.9955C20.4979 56.0159 20.4569 55.9617 20.4297 55.9346C20.3614 55.806 20.3069 55.6774 20.2932 55.5353C20.2659 55.2916 20.2659 55.0683 20.2659 54.8314C20.2796 52.1173 20.2659 49.4032 20.3069 46.6756C20.3205 46.0664 20.3205 45.437 20.4297 44.8481C20.6616 43.5486 21.2142 42.8108 22.2102 42.2491C22.5581 42.0596 22.9674 41.9783 23.3154 41.7821C23.7588 41.5587 24.1135 41.2541 24.3932 40.7871C24.7343 40.2118 24.9868 39.5824 25.1232 38.892C25.2733 38.1204 25.3961 37.3488 25.4234 36.5637C25.4916 34.4249 25.4643 32.3064 25.3142 30.1744C25.2869 29.7751 25.246 29.3554 25.0959 28.9832C24.8367 28.3266 24.3932 28.2319 23.8816 28.5974C23.7179 28.7124 23.5951 28.9155 23.52 29.1253C23.3563 29.5111 23.1789 29.9104 23.0902 30.3301C22.7901 31.6634 22.6059 33.0103 22.4831 34.3775C22.4422 34.9054 22.4149 35.4198 22.3194 35.9342C22.2511 36.3065 22.1693 36.672 22.0192 37.0104C21.76 37.6195 21.412 38.0189 20.914 38.3438C20.7503 38.4453 20.5183 38.5062 20.3137 38.6348ZM14.1943 33.9308C14.2762 33.7548 14.3854 33.545 14.4399 33.3555C14.4672 33.2404 14.4399 33.1118 14.3717 33.0645C14.2489 32.9832 14.1671 33.0035 14.0443 33.0645C13.976 33.0983 13.9351 33.2269 13.9624 33.3352C14.017 33.5315 14.1125 33.7548 14.1943 33.9308ZM19.7611 38.7972C19.5837 38.8784 19.4132 38.9394 19.2495 39.0544C19.1812 39.1018 19.1539 39.2439 19.1812 39.3252C19.2495 39.4673 19.3313 39.5485 19.4814 39.4538C19.7065 39.3455 19.7611 39.068 19.7611 38.7972Z" fill="white"/>
<path d="M24.4108 17.4063L23.7634 17.8225L40.1858 43.3671L40.8332 42.9509L24.4108 17.4063Z" fill="white"/>
<path d="M42.2058 29.3167C40.5155 29.4318 39.0698 28.9067 37.7967 27.9285C36.5668 26.9863 35.6246 25.7924 35.4304 24.1812C35.265 22.8075 35.4088 21.4409 35.9267 20.139C36.4733 18.7509 37.1566 17.4418 37.955 16.1975C39.0482 14.5001 40.0049 12.7164 40.8392 10.8751C41.2635 9.94724 41.58 8.97625 41.7598 7.96211C41.767 7.90457 41.767 7.84703 41.7742 7.78948C41.8318 7.50178 42.0403 7.32916 42.2849 7.32197C42.4143 7.31478 42.6157 7.50898 42.6805 7.66002C42.9969 8.34331 43.2631 9.04098 43.5652 9.73147C44.3419 11.4936 45.1547 13.227 46.3055 14.7878C47.1326 15.9098 47.8879 17.0966 48.5999 18.2978C49.089 19.1249 49.312 20.0743 49.4918 21.0309C49.909 23.3181 49.1178 25.2529 47.7944 27.0079C47.1686 27.8278 46.2767 28.3385 45.3417 28.7341C44.3276 29.1585 43.2631 29.4318 42.2058 29.3167ZM40.5946 16.4852C40.5731 16.4421 40.5515 16.4205 40.5371 16.3917C40.5011 16.4277 40.4508 16.4565 40.4364 16.4996C40.4292 16.514 40.4868 16.5644 40.5155 16.6003C40.5371 16.5572 40.5659 16.5212 40.5946 16.4852Z" stroke="white" stroke-width="0.75" stroke-miterlimit="10"/>
<path d="M37.5522 22.8938C37.6601 23.3972 37.7321 23.9151 37.8759 24.4042C37.9406 24.6272 38.1205 24.8429 38.3003 24.994C38.401 25.0803 38.6455 25.1019 38.7678 25.0371C38.8829 24.9796 38.9692 24.7566 38.962 24.6128C38.9548 24.4114 38.8613 24.21 38.775 24.0158C38.4945 23.3685 38.3434 22.6852 38.4297 21.9947C38.588 20.6928 39.1202 19.5205 39.7675 18.3984C39.8539 18.2474 39.9617 18.1107 40.0409 17.9597C40.0624 17.9237 40.0265 17.859 40.0121 17.8158C40.0121 17.8086 39.933 17.8158 39.9114 17.8374C39.8179 17.9309 39.7244 18.0244 39.6525 18.1395C39.1993 18.8731 38.7031 19.578 38.3075 20.3476C37.9119 21.1316 37.581 21.9587 37.5522 22.8938Z" fill="white" stroke="white" stroke-width="0.75" stroke-miterlimit="10"/>
<path d="M44.0829 26.9504C45.0827 26.9504 46.0105 26.1448 46.1544 25.5982C46.2263 25.3105 46.1112 25.1666 45.9386 25.0012C45.766 24.8358 45.5861 24.8933 45.4207 25.0012C45.3128 25.0731 45.1977 25.1522 45.1186 25.2529C44.7662 25.6989 44.2987 25.8499 43.7592 25.8068C43.6873 25.7996 43.6082 25.8068 43.5291 25.8068C43.3061 25.7996 43.191 25.9362 43.1047 26.1304C43.0112 26.3462 43.1407 26.49 43.2773 26.5692C43.5794 26.7418 43.9103 26.8712 44.0829 26.9504Z" fill="white" stroke="white" stroke-width="0.75" stroke-miterlimit="10"/>
<path d="M46.9313 23.6346C46.9313 23.4332 46.8954 23.239 46.6508 23.2246C46.4566 23.2102 46.1473 23.5842 46.1905 23.7928C46.2336 24.0014 46.3775 24.1165 46.5933 24.1165C46.8234 24.1165 46.9385 23.9511 46.9313 23.6346Z" fill="white" stroke="white" stroke-width="0.75" stroke-miterlimit="10"/>
</svg>
