<svg width="60" height="60" viewBox="0 0 60 60" fill="none" xmlns="http://www.w3.org/2000/svg">
<path d="M30 60C46.5685 60 60 46.5685 60 30C60 13.4315 46.5685 0 30 0C13.4315 0 0 13.4315 0 30C0 46.5685 13.4315 60 30 60Z" fill="#61C8B3"/>
<path d="M35.5799 32.4024C35.4617 32.7074 35.3804 33.08 35.24 33.3849C35.0036 33.866 34.6415 34.1709 34.1465 34.1303C33.7696 34.11 33.5701 33.866 33.4297 33.4934C33.2894 33.1207 33.3706 32.8158 33.6662 32.5515C34.043 32.2466 34.5011 32.0027 34.9223 31.7181C34.9445 31.3251 34.9593 30.9727 34.9593 30.5797C34.9002 27.761 34.9002 24.9422 34.7598 22.1167C34.6637 20.172 34.6415 18.2273 34.479 16.2827C34.3016 13.9857 33.7031 11.8919 32.9273 9.74397C32.75 9.26288 32.4913 8.82923 32.1293 8.47688C31.0727 7.44695 29.9791 7.29788 28.8042 8.17197C28.1244 8.67338 27.7328 9.43905 27.4077 10.2454C26.8683 11.6006 26.5136 13.0235 26.3363 14.4871C26.0186 16.9806 25.9373 19.4741 25.9004 21.9879C25.8782 22.5774 25.9816 23.1873 26.0186 23.7835C26.3363 23.8716 26.6984 23.8716 26.9939 24.0004C27.3929 24.1765 27.5703 24.4137 27.5703 24.8948C27.5703 25.3759 27.4742 25.8366 27.1491 26.2093C26.7501 26.6904 26.3141 26.6701 25.8782 26.2296C25.76 26.1009 25.6787 25.9044 25.5826 25.7282C25.4866 25.552 25.4053 25.3555 25.324 25.1794C25.0654 25.1794 24.8437 25.1794 24.5703 25.1794C24.2896 25.1794 23.994 25.2471 23.7132 25.1794C22.9965 25.0506 22.5384 24.766 22.2428 24.0207C21.9472 23.255 21.7477 22.4487 21.6886 21.6153C21.6295 20.4363 21.6517 19.2302 21.5704 18.0512C21.5335 17.3533 21.4522 16.6282 21.334 15.9303C21.297 15.7135 21.2379 15.4492 21.0975 15.2731C20.7576 14.792 20.4399 14.6158 19.9005 14.9478C18.4301 15.8219 17.669 16.4792 17.174 18.2951C16.9375 19.1895 16.775 20.0636 16.775 20.9174C16.7528 23.3228 17.1296 25.4843 17.6542 27.761C17.6542 27.8016 17.6764 27.8491 17.6912 27.8694C18.2897 29.4888 19.1838 30.2545 20.7133 30.6678C21.43 30.8643 22.1689 30.8237 22.8635 30.9524C24.0162 31.1692 24.7329 31.7181 25.095 32.9648C25.494 34.2997 25.5531 35.6752 25.6122 37.0778C25.6935 38.5414 25.6344 40.0321 25.6935 41.4956C25.8117 44.4228 25.9299 47.3771 26.0703 50.3043C26.1073 51.1377 26.1516 51.944 26.0703 52.7774C25.9077 52.8859 25.6713 52.8181 25.6344 52.6216C25.494 51.9847 25.3979 51.3748 25.3536 50.7447C25.058 46.1981 24.9176 41.6041 24.8363 37.0575C24.8142 36.0275 24.7772 34.9366 24.5999 33.9948C24.2822 32.3144 23.7428 31.9214 22.2502 31.6571C21.6369 31.5487 20.8758 31.5487 20.2182 31.4199C19.8783 31.3319 19.5015 31.2438 19.1838 31.0676C18.2454 30.5187 17.5286 29.8886 17.1518 28.7706C16.7158 27.4832 16.3981 26.2364 16.2356 24.8338C15.9991 22.6723 15.8144 20.7005 16.3316 18.539C16.8488 16.3504 17.7873 15.3679 19.5384 14.2973C20.5138 13.7078 21.2305 13.9721 21.7847 14.9546C22.2206 15.7203 22.2428 16.5944 22.3241 17.4684C22.4054 18.4509 22.3463 19.4605 22.4054 20.443C22.4645 21.5136 22.6049 22.5639 22.9595 23.5667C23.1369 24.0681 23.4398 24.2646 23.9349 24.3324C24.2896 24.373 24.6886 24.2917 25.0506 24.3121C25.0876 24.0478 25.1467 23.7226 25.1467 23.4786C25.0876 20.6395 25.1689 17.8411 25.4866 15.0156C25.6861 13.22 26.122 11.5192 26.8018 9.87949C27.1565 9.04605 27.5998 8.23973 28.3166 7.73831C30.0086 6.55932 31.8559 6.75582 33.016 8.59207C34.3903 10.801 34.8484 13.1861 35.0479 15.7609C35.3065 19.1082 35.2474 22.4284 35.3878 25.7757C35.4691 27.4832 35.4691 29.1839 35.5504 30.9117C35.5504 31.1082 35.6095 31.3251 35.6317 31.5216C36.3853 31.3454 36.9617 30.9998 37.3829 30.2748C37.7375 29.6853 37.8779 29.0484 37.9814 28.3708C38.0996 27.6932 38.1217 27.0156 38.203 26.3584C38.4025 24.4137 38.6611 22.5097 39.0971 20.6124C39.2744 19.8671 39.5183 19.1895 39.9321 18.5594C40.3311 17.9224 40.8852 17.5294 41.6241 17.4888C42.4221 17.4481 42.9985 17.7937 43.3384 18.5797C43.5748 19.1489 43.7374 19.779 43.7965 20.3956C44.0329 23.831 44.1142 27.1918 43.7595 30.6272C43.597 32.2669 43.1389 33.7779 42.4295 35.2415C41.8754 36.3595 40.9961 37.0575 39.9838 37.6266C39.5626 37.8435 39.0897 37.9519 38.6685 38.1958C37.6562 38.765 37.0356 39.4832 36.7991 40.73C36.6587 41.516 36.6366 42.302 36.6218 43.1151C36.5627 45.6492 36.5848 48.2105 36.5405 50.7447C36.5036 52.2557 36.4444 53.7599 36.3632 55.271C36.3632 55.4675 36.3041 55.664 36.2449 55.8401C36.208 55.9282 36.0824 55.9689 36.0085 55.996C35.9272 56.0163 35.8681 55.9553 35.8312 55.9079C35.7351 55.7317 35.6538 55.5555 35.6317 55.359C35.5947 55.0338 35.5947 54.7221 35.5947 54.3969C35.6169 50.704 35.5947 47.0112 35.6538 43.2912C35.676 42.4578 35.676 41.6108 35.8312 40.7977C36.1711 39.0292 36.9838 38.0196 38.4616 37.254C38.9789 36.9897 39.5774 36.8813 40.0946 36.617C40.7522 36.3121 41.2695 35.8988 41.6832 35.2619C42.1783 34.4759 42.5625 33.6221 42.7546 32.6802C42.9763 31.63 43.1537 30.5797 43.1906 29.5091C43.2867 26.6023 43.2497 23.7158 43.028 20.8089C42.9911 20.2601 42.932 19.6909 42.7103 19.1895C42.3335 18.2951 41.6759 18.1596 40.9222 18.6678C40.6857 18.8236 40.501 19.1082 40.3828 19.386C40.1463 19.9078 39.8877 20.4566 39.7473 21.0258C39.3114 22.8417 39.0306 24.678 38.8533 26.5345C38.7941 27.2528 38.7572 27.9575 38.6168 28.6554C38.5208 29.1568 38.3951 29.6582 38.1809 30.119C37.804 30.9524 37.2868 31.4945 36.5479 31.9349C36.2154 32.1382 35.8755 32.2263 35.5799 32.4024ZM26.5654 25.9925C26.6836 25.7553 26.8462 25.4707 26.92 25.2065C26.957 25.0506 26.92 24.8812 26.824 24.8135C26.6466 24.7051 26.5284 24.7254 26.3437 24.8135C26.2476 24.8541 26.1811 25.0303 26.2255 25.1861C26.2994 25.4504 26.4398 25.7553 26.5654 25.9925ZM34.7598 32.6193C34.5011 32.7277 34.2425 32.8158 34.0061 32.9716C33.91 33.0394 33.8657 33.2359 33.91 33.3443C34.0061 33.5408 34.1317 33.6492 34.346 33.5205C34.6785 33.3646 34.7598 32.9919 34.7598 32.6193Z" fill="white"/>
</svg>
