<svg width="60" height="60" viewBox="0 0 60 60" fill="none" xmlns="http://www.w3.org/2000/svg">
<path d="M30 60C46.5685 60 60 46.5685 60 30C60 13.4315 46.5685 0 30 0C13.4315 0 0 13.4315 0 30C0 46.5685 13.4315 60 30 60Z" fill="#61C8B3"/>
<path d="M30.0517 45.2928C27.5677 45.4627 25.4477 44.694 23.5786 43.2538C21.7743 41.8701 20.3906 40.1143 20.0993 37.7597C19.8485 35.745 20.067 33.7383 20.8195 31.8288C21.6205 29.7978 22.6239 27.864 23.8052 26.0354C25.4154 23.5432 26.8071 20.9297 28.0451 18.2191C28.6681 16.8598 29.1374 15.4276 29.3963 13.9388C29.4125 13.8579 29.4044 13.7689 29.4206 13.6879C29.5096 13.2672 29.809 13.0164 30.1731 13.0002C30.3673 12.9921 30.6505 13.2753 30.7557 13.4938C31.2169 14.4971 31.6133 15.5247 32.0584 16.5361C33.1912 19.1253 34.3968 21.666 36.0798 23.964C37.2935 25.6146 38.402 27.3542 39.4539 29.1182C40.174 30.3319 40.5057 31.7236 40.7566 33.1315C41.3634 36.4894 40.2145 39.3375 38.2644 41.9106C37.3501 43.1162 36.0312 43.8687 34.6638 44.4432C33.1588 45.0662 31.5972 45.4627 30.0517 45.2928ZM27.689 26.4561C27.6567 26.3995 27.6324 26.359 27.6081 26.3185C27.5515 26.3671 27.4868 26.4156 27.4544 26.4804C27.4463 26.5046 27.5272 26.5775 27.5677 26.626C27.6 26.5613 27.6486 26.5046 27.689 26.4561Z" stroke="white" stroke-miterlimit="10"/>
<path d="M23.2144 35.8663C23.3682 36.6107 23.4814 37.3632 23.6918 38.0833C23.7889 38.4151 24.0478 38.7306 24.3148 38.9572C24.4686 39.0866 24.8246 39.119 25.0026 39.0219C25.1644 38.9329 25.2939 38.6093 25.2858 38.3989C25.2696 38.0995 25.1402 37.8082 25.0107 37.525C24.598 36.5783 24.3796 35.5669 24.5009 34.5555C24.7356 32.6459 25.5124 30.9225 26.4671 29.2799C26.5966 29.0615 26.7503 28.8592 26.8717 28.6407C26.896 28.5922 26.8555 28.4951 26.8232 28.4222C26.8151 28.4142 26.7018 28.4222 26.6775 28.4546C26.54 28.5922 26.4024 28.7378 26.2972 28.8996C25.6256 29.9758 24.9055 31.0196 24.3229 32.1362C23.7404 33.2771 23.2549 34.4908 23.2144 35.8663Z" fill="white" stroke="white" stroke-miterlimit="10"/>
<path d="M32.8027 41.8216C34.2672 41.8216 35.6347 40.6402 35.8369 39.8311C35.9502 39.4103 35.7722 39.1919 35.5214 38.9572C35.2625 38.7145 35.0035 38.7954 34.7608 38.9572C34.599 39.0624 34.429 39.1757 34.3158 39.3294C33.7979 39.9848 33.1182 40.2033 32.3172 40.1386C32.2039 40.1305 32.0987 40.1386 31.9855 40.1386C31.6618 40.1305 31.4919 40.3328 31.3624 40.6079C31.2249 40.9234 31.411 41.1338 31.6133 41.2471C32.0664 41.5141 32.5519 41.7083 32.8027 41.8216Z" fill="white"/>
<path d="M36.9939 36.9506C36.9858 36.6512 36.9453 36.368 36.5812 36.3437C36.298 36.3275 35.8368 36.8778 35.9015 37.1771C35.9663 37.4765 36.1847 37.6545 36.4922 37.6545C36.832 37.6626 37.002 37.4199 36.9939 36.9506Z" fill="white" stroke="white" stroke-miterlimit="10"/>
</svg>
