<svg width="60" height="60" viewBox="0 0 60 60" fill="none" xmlns="http://www.w3.org/2000/svg">
<circle cx="30" cy="30" r="30" fill="#61C8B3"/>
<path d="M1 29.4946C5.28893 28.9747 11.4707 29.4355 13.4521 24.5403C13.6201 24.1253 14.3282 20.9778 15.0003 22.1836C15.7184 23.4721 16.2277 25.1524 16.7205 26.553C17.3417 28.3186 18.286 29.8152 19.2836 31.404C20.4452 33.2539 20.3985 30.6065 20.591 29.4946C20.9156 27.6187 20.7954 27.2414 22.638 27.3271C25.4026 27.4557 28.1957 27.3443 30.9639 27.3443C31.9334 27.3443 31.2993 23.8758 31.4111 23.0782C31.5488 22.0959 31.4227 19.321 31.9616 20.1538C34.1546 23.5429 34.4365 28.1147 36.0729 31.7652C36.8346 33.4643 37.1451 32.9923 37.7071 31.4728C38.1207 30.3546 38.2415 27.4993 39.7026 27.4819C45.5772 27.412 51.5 27.3271 59 29.4946" stroke="white" stroke-linecap="round" stroke-linejoin="round"/>
</svg>
